<svg xmlns="http://www.w3.org/2000/svg" viewBox="0 0 149 44" width="149" height="44" role="img" aria-label="Facebook"><title>Facebook</title><defs><path id="g70" d="M0 800V0H200V400H600V600H200V800ZM200 800H1000V1000H200Z"/><path id="g97" d="M800 800V600H200V800H0V0H200V400H800V0H1000V800ZM200 800H800V1000H200Z"/><path id="g99" d="M0 200H200V800H0ZM800 600H1000V800H800ZM800 200H1000V400H800ZM200 800H800V1000H200ZM200 0H800V200H200Z"/><path id="g101" d="M0 800V0H1000V200H200V400H600V600H200V800ZM200 800H1000V1000H200Z"/><path id="g98" d="M800 600H1000V800H800ZM800 200H1000V400H800ZM0 1000V0H800V200H200V400H800V600H200V800H800V1000Z"/><path id="g111" d="M0 200H200V800H0ZM800 200H1000V800H800ZM200 800H800V1000H200ZM200 0H800V200H200Z"/><path id="g107" d="M800 0H1000V200H800ZM0 1000V0H200V400H600V600H200V1000ZM800 800H1000V1000H800ZM600 600H800V800H600ZM600 200H800V400H600Z"/></defs><rect x="1.5" y="1.5" width="146" height="41" rx="6" fill="#21252e" stroke="#1e90ff" stroke-width="3"/><g opacity="1"><g transform="translate(15 12)" fill="#ffffff"><path transform="scale(.8333)" d="M24 12.073c0-6.627-5.373-12-12-12s-12 5.373-12 12c0 5.99 4.388 10.954 10.125 11.854v-8.385H7.078v-3.47h3.047V9.43c0-3.007 1.792-4.669 4.533-4.669 1.312 0 2.686.235 2.686.235v2.953H15.83c-1.491 0-1.956.925-1.956 1.874v2.25h3.328l-.532 3.47h-2.796v8.385C19.612 23.027 24 18.062 24 12.073z"/></g><g transform="translate(45.0 29) scale(0.00928 -0.00928)" fill="#ffffff"><use href="#g70" x="0"/><use href="#g97" x="1202"/><use href="#g99" x="2404"/><use href="#g101" x="3606"/><use href="#g98" x="4808"/><use href="#g111" x="6010"/><use href="#g111" x="7212"/><use href="#g107" x="8414"/></g></g></svg>